# xmcd
#
# Track frame offsets: 
#        150
#        11985
#        22385
#        35447
#        46957
#        60265
#        72397
#        85025
#        97817
#        108420
#        121465
#        134600
#        147085
#        161817
#        174472
#        185222
#        197077
#        209122
#        221380
#
# Disc length: 3088 seconds
#
# Revision: 1
# Processed by: cddbd v1.5.2PL0 Copyright (c) Steve Scherf et al.
# Submitted via: ExactAudioCopy v0.95b2
#
DISCID=200c0e13
DTITLE=Otis Clay - Got To Find A Way
DYEAR=1990
DGENRE=Soul
TTITLE0=Got To Find A Way
TTITLE1=Wrapped Up In Her Love
TTITLE2=I Don't Know What I'd Do
TTITLE3=Cry Cry Cry
TTITLE4=A Flame In Your Heart
TTITLE5=Tired Of Falling In And Out Of Love
TTITLE6=I Paid The Price
TTITLE7=I'm Satisfied
TTITLE8=I Testify
TTITLE9=It's Easier Said Than Done
TTITLE10=I Lost Someone
TTITLE11=Funny Life
TTITLE12=This Love Of Mine
TTITLE13=Nothing To Look Forward To
TTITLE14=Come My Dear
TTITLE15=That's How It Is
TTITLE16=Must I Keep On Waiting
TTITLE17=Don't Pass Me By
TTITLE18=That'll Get You What You Want
EXTD=
EXTT0=
EXTT1=
EXTT2=
EXTT3=
EXTT4=
EXTT5=
EXTT6=
EXTT7=
EXTT8=
EXTT9=
EXTT10=
EXTT11=
EXTT12=
EXTT13=
EXTT14=
EXTT15=
EXTT16=
EXTT17=
EXTT18=
PLAYORDER=
